<?xml version="1.0" encoding="utf-8"?>
<!-- Generator: Adobe Illustrator 17.0.1, SVG Export Plug-In . SVG Version: 6.00 Build 0)  -->
<!DOCTYPE svg PUBLIC "-//W3C//DTD SVG 1.1//EN" "http://www.w3.org/Graphics/SVG/1.1/DTD/svg11.dtd">
<svg version="1.1" id="Layer_1" xmlns="http://www.w3.org/2000/svg" xmlns:xlink="http://www.w3.org/1999/xlink" x="0px" y="0px"
	 width="300px" height="250px" viewBox="0 0 300 250" enable-background="new 0 0 300 250" xml:space="preserve">
<g opacity="0.1">
	<polygon fill="#EF4E8A" points="120.447,79.598 169.162,97.195 165.774,106.707 116.962,89.258 	"/>
	<polygon fill="#EF4E8A" points="217.809,85.01 224.482,92.562 262.422,56.989 255.652,49.584 	"/>
	
		<rect x="186.36" y="143.057" transform="matrix(-0.2031 -0.9792 0.9792 -0.2031 119.1193 395.9329)" fill="#EF4E8A" width="68.625" height="12.875"/>
	<polyline fill="#EF4E8A" points="179.004,123.096 192.943,190.29 205.672,187.649 191.733,120.455 	"/>
	<circle fill-rule="evenodd" clip-rule="evenodd" fill="#EF4E8A" cx="186.061" cy="53.731" r="40"/>
	<circle fill-rule="evenodd" clip-rule="evenodd" fill="#FFFFFF" cx="186.061" cy="53.731" r="29.875"/>
	
		<rect x="184.369" y="80.94" transform="matrix(0.9792 -0.2031 0.2031 0.9792 -13.9653 41.1103)" fill-rule="evenodd" clip-rule="evenodd" fill="#FFFFFF" width="17.846" height="15.299"/>
	<polyline fill="#6CCBD4" points="196.246,124.671 204.936,122.868 202.142,109.405 217.013,106.32 215.033,96.773 200.101,99.871 
		197.071,85.882 188.565,87.647 191.434,101.477 176.563,104.562 178.582,114.293 193.452,111.208 	"/>
</g>
<g opacity="0.1">
	<polygon fill="#EF4E8A" points="99.431,96.462 150.691,103.89 149.287,113.889 97.961,106.626 	"/>
	<polygon fill="#EF4E8A" points="195.888,82.16 203.945,88.213 233.945,45.729 225.823,39.84 	"/>
	
		<rect x="177.364" y="138.309" transform="matrix(-0.3961 -0.9182 0.9182 -0.3961 162.6186 396.445)" fill="#EF4E8A" width="68.625" height="12.875"/>
	<polyline fill="#EF4E8A" points="165.546,127.279 192.73,190.29 204.666,185.141 177.483,122.129 	"/>
	<circle fill-rule="evenodd" clip-rule="evenodd" fill="#EF4E8A" cx="158.492" cy="57.914" r="40"/>
	<circle fill-rule="evenodd" clip-rule="evenodd" fill="#FFFFFF" cx="158.492" cy="57.914" r="29.875"/>
	
		<rect x="163.671" y="82.952" transform="matrix(0.9182 -0.3961 0.3961 0.9182 -21.7708 75.7789)" fill-rule="evenodd" clip-rule="evenodd" fill="#FFFFFF" width="17.846" height="15.299"/>
	<polyline fill="#6CCBD4" points="182.752,125.35 190.901,121.834 185.454,109.209 199.399,103.193 195.537,94.241 181.535,100.281 
		175.751,87.189 167.774,90.63 173.369,103.6 159.424,109.616 163.36,118.741 177.305,112.725 	"/>
</g>
<g opacity="0.1">
	<polygon fill="#EF4E8A" points="83.453,116.021 135.188,113.516 135.721,123.599 83.953,126.278 	"/>
	<polygon fill="#EF4E8A" points="175.399,83.549 184.465,87.951 205.794,40.517 196.696,36.288 	"/>
	
		<rect x="168.545" y="135.528" transform="matrix(-0.5643 -0.8256 0.8256 -0.5643 200.1228 389.5496)" fill="#EF4E8A" width="68.625" height="12.875"/>
	<polyline fill="#EF4E8A" points="154.239,133.635 192.963,190.29 203.695,182.954 164.971,126.299 	"/>
	<circle fill-rule="evenodd" clip-rule="evenodd" fill="#EF4E8A" cx="134.06" cy="66.896" r="40"/>
	<circle fill-rule="evenodd" clip-rule="evenodd" fill="#FFFFFF" cx="134.06" cy="66.896" r="29.875"/>
	
		<rect x="145.225" y="88.637" transform="matrix(0.8256 -0.5643 0.5643 0.8256 -27.4467 103.7779)" fill-rule="evenodd" clip-rule="evenodd" fill="#FFFFFF" width="17.846" height="15.299"/>
	<polyline fill="#6CCBD4" points="170.759,128.453 178.086,123.445 170.327,112.094 182.866,103.524 177.364,95.474 
		164.774,104.079 156.594,92.334 149.422,97.236 157.393,108.897 144.854,117.468 150.462,125.672 163,117.102 	"/>
</g>
<g opacity="0.1">
	<polygon fill="#EF4E8A" points="73.318,133.973 124.032,123.445 126.128,133.322 75.408,144.027 	"/>
	<polygon fill="#EF4E8A" points="159.088,87.584 168.729,90.522 182.414,40.346 172.768,37.585 	"/>
	
		<rect x="160.993" y="134.577" transform="matrix(-0.6859 -0.7277 0.7277 -0.6859 226.656 379.858)" fill="#EF4E8A" width="68.625" height="12.875"/>
	<polyline fill="#EF4E8A" points="145.982,140.353 193.054,190.29 202.514,181.373 155.442,131.436 	"/>
	<circle fill-rule="evenodd" clip-rule="evenodd" fill="#EF4E8A" cx="115.66" cy="77.569" r="40"/>
	<circle fill-rule="evenodd" clip-rule="evenodd" fill="#FFFFFF" cx="115.66" cy="77.569" r="29.875"/>
	
		<rect x="131.156" y="95.825" transform="matrix(0.7277 -0.6859 0.6859 0.7277 -32.8287 124.2618)" fill-rule="evenodd" clip-rule="evenodd" fill="#FFFFFF" width="17.846" height="15.299"/>
	<polyline fill="#6CCBD4" points="161.495,132.664 167.953,126.576 158.521,116.57 169.573,106.153 162.885,99.058 151.788,109.518 
		141.88,99.189 135.558,105.148 145.247,115.427 134.195,125.844 141.012,133.075 152.063,122.658 	"/>
</g>
<g opacity="0.1">
	<polygon fill="#EF4E8A" points="65.649,154.575 113.92,135.796 117.622,145.19 69.375,164.144 	"/>
	<polygon fill="#EF4E8A" points="142.555,94.625 152.548,95.926 157.737,44.177 147.767,43.051 	"/>
	
		<rect x="152.806" y="134.884" transform="matrix(-0.7969 -0.6041 0.6041 -0.7969 250.8724 366.9774)" fill="#EF4E8A" width="68.625" height="12.875"/>
	<polyline fill="#EF4E8A" points="138.367,148.836 193.057,190.29 200.909,179.93 146.22,138.476 	"/>
	<circle fill-rule="evenodd" clip-rule="evenodd" fill="#EF4E8A" cx="98.068" cy="91.94" r="40"/>
	<circle fill-rule="evenodd" clip-rule="evenodd" fill="#FFFFFF" cx="98.068" cy="91.94" r="29.875"/>
	
		<rect x="117.516" y="105.795" transform="matrix(0.6041 -0.7969 0.7969 0.6041 -40.346 145.6807)" fill-rule="evenodd" clip-rule="evenodd" fill="#FFFFFF" width="17.846" height="15.299"/>
	<polyline fill="#6CCBD4" points="152.392,138.684 157.753,131.611 146.795,123.306 155.969,111.202 148.199,105.313 
		138.987,117.466 127.505,108.92 122.258,115.843 133.514,124.376 124.34,136.479 132.26,142.482 141.434,130.378 	"/>
</g>
<g>
	<polygon fill="#EF4E8A" points="144.45,67.18 188.575,94.305 183.325,102.93 139.075,75.93 	"/>
	<polygon fill="#EF4E8A" points="238.682,92.256 243.682,101.006 288.057,73.881 282.932,65.256 	"/>
	<rect x="221.95" y="121.665" fill="#EF4E8A" width="12.875" height="68.625"/>
	<polyline fill="#EF4E8A" points="192.95,121.665 192.95,190.29 205.95,190.29 205.95,121.665 	"/>
	<circle fill-rule="evenodd" clip-rule="evenodd" fill="#EF4E8A" cx="213.95" cy="55.18" r="40"/>
	<circle fill-rule="evenodd" clip-rule="evenodd" fill="#FFFFFF" cx="213.95" cy="55.18" r="29.875"/>
	<rect x="205.027" y="83.131" fill-rule="evenodd" clip-rule="evenodd" fill="#FFFFFF" width="17.846" height="15.299"/>
	<polyline fill="#6CCBD4" points="209.512,126.71 218.387,126.71 218.387,112.96 233.575,112.96 233.575,103.21 218.325,103.21 
		218.2,88.897 209.512,88.897 209.512,103.022 194.325,103.022 194.325,112.96 209.512,112.96 	"/>
</g>
<g opacity="0.1">
	<polygon fill="#EF4E8A" points="61.522,173.503 106.545,147.896 111.576,156.651 66.602,182.427 	"/>
	<polygon fill="#EF4E8A" points="128.882,102.996 138.958,102.828 136.558,50.875 126.531,51.212 	"/>
	
		<rect x="145.456" y="136.27" transform="matrix(-0.8764 -0.4816 0.4816 -0.8764 268.5833 354.3539)" fill="#EF4E8A" width="68.625" height="12.875"/>
	<polyline fill="#EF4E8A" points="132.63,157.239 192.772,190.29 199.033,178.897 138.891,145.846 	"/>
	<circle fill-rule="evenodd" clip-rule="evenodd" fill="#EF4E8A" cx="84.478" cy="106.815" r="40"/>
	<circle fill-rule="evenodd" clip-rule="evenodd" fill="#FFFFFF" cx="84.478" cy="106.815" r="29.875"/>
	
		<rect x="106.754" y="116.311" transform="matrix(0.4816 -0.8764 0.8764 0.4816 -48.6715 165.6364)" fill-rule="evenodd" clip-rule="evenodd" fill="#FFFFFF" width="17.846" height="15.299"/>
	<polyline fill="#6CCBD4" points="145.028,145.154 149.302,137.376 137.252,130.753 144.567,117.443 136.022,112.748 
		128.677,126.112 116.074,119.329 111.89,126.942 124.269,133.745 116.954,147.055 125.663,151.841 132.978,138.531 	"/>
</g>
<g opacity="0.1">
	<polygon fill="#EF4E8A" points="60.667,192.405 101.574,160.634 107.803,168.582 66.969,200.514 	"/>
	<polygon fill="#EF4E8A" points="117.273,113.006 127.222,111.401 117.431,60.323 107.555,62.088 	"/>
	
		<rect x="138.994" y="138.61" transform="matrix(-0.9362 -0.3516 0.3516 -0.9362 284.5511 341.7676)" fill="#EF4E8A" width="68.625" height="12.875"/>
	<polyline fill="#EF4E8A" points="128.726,166.158 192.969,190.286 197.54,178.116 133.296,153.988 	"/>
	<circle fill-rule="evenodd" clip-rule="evenodd" fill="#EF4E8A" cx="73.869" cy="123.124" r="40"/>
	<circle fill-rule="evenodd" clip-rule="evenodd" fill="#FFFFFF" cx="73.869" cy="123.124" r="29.875"/>
	
		<rect x="98.273" y="127.991" transform="matrix(0.3516 -0.9362 0.9362 0.3516 -57.4733 188.3023)" fill-rule="evenodd" clip-rule="evenodd" fill="#FFFFFF" width="17.846" height="15.299"/>
	<polyline fill="#6CCBD4" points="139.271,152.427 142.392,144.119 129.52,139.284 134.859,125.066 125.732,121.638 120.37,135.915 
		106.928,131 103.873,139.132 117.096,144.099 111.756,158.316 121.059,161.81 126.399,147.593 	"/>
</g>
<g opacity="0.1">
	<polygon fill="#EF4E8A" points="62.372,211.273 98.323,173.986 105.622,180.963 69.767,218.398 	"/>
	<polygon fill="#EF4E8A" points="107.06,124.604 116.678,121.595 99.693,72.438 90.17,75.595 	"/>
	
		<rect x="132.782" y="141.878" transform="matrix(-0.9768 -0.2143 0.2143 -0.9768 298.5216 328.9953)" fill="#EF4E8A" width="68.625" height="12.875"/>
	<polyline fill="#EF4E8A" points="125.985,175.576 193.015,190.283 195.801,177.585 128.771,162.878 	"/>
	<circle fill-rule="evenodd" clip-rule="evenodd" fill="#EF4E8A" cx="65.545" cy="140.816" r="40"/>
	<circle fill-rule="evenodd" clip-rule="evenodd" fill="#FFFFFF" cx="65.545" cy="140.816" r="29.875"/>
	
		<rect x="91.395" y="140.796" transform="matrix(0.2143 -0.9768 0.9768 0.2143 -66.1772 214.6194)" fill-rule="evenodd" clip-rule="evenodd" fill="#FFFFFF" width="17.846" height="15.299"/>
	<polyline fill="#6CCBD4" points="134.462,160.48 136.364,151.811 122.933,148.864 126.188,134.03 116.665,131.94 113.396,146.836 
		99.39,143.89 97.528,152.376 111.325,155.403 108.07,170.238 117.776,172.368 121.031,157.533 	"/>
</g>
<g>
	
		<rect x="119.225" y="148.481" transform="matrix(-1 0.001 -0.001 -1 307.2338 309.6787)" fill="#EF4E8A" width="68.625" height="12.875"/>
	<polyline fill="#EF4E8A" points="119.261,190.391 187.886,190.321 187.873,177.321 119.248,177.391 	"/>
	<circle fill-rule="evenodd" clip-rule="evenodd" fill="#EF4E8A" cx="52.755" cy="169.459" r="40"/>
	<circle fill-rule="evenodd" clip-rule="evenodd" fill="#FFFFFF" cx="52.755" cy="169.459" r="29.875"/>
	
		<rect x="79.432" y="161.773" transform="matrix(-0.001 -1 1 -0.001 -80.9769 257.9518)" fill-rule="evenodd" clip-rule="evenodd" fill="#FFFFFF" width="17.846" height="15.299"/>
	<polyline fill="#6CCBD4" points="124.289,173.823 124.28,164.948 110.53,164.962 110.514,149.775 100.764,149.785 100.78,165.035 
		86.467,165.175 86.476,173.862 100.601,173.848 100.617,189.035 110.554,189.025 110.539,173.837 	"/>
</g>
<text transform="matrix(1 0 0 1 73.3175 237.7787)"><tspan x="0" y="0" fill="#EF4E8A" font-family="'Raleway-ExtraBold'" font-size="23">C</tspan><tspan x="15.249" y="0" fill="#6CCBD4" font-family="'Raleway-Bold'" font-size="23">plus</tspan><tspan x="63.065" y="0" fill="#EF4E8A" font-family="'Raleway-SemiBold'" font-size="23">equality</tspan></text>
</svg>
