<?xml version="1.0" encoding="utf-8"?>
<!-- Generator: Adobe Illustrator 17.0.1, SVG Export Plug-In . SVG Version: 6.00 Build 0)  -->
<!DOCTYPE svg PUBLIC "-//W3C//DTD SVG 1.1//EN" "http://www.w3.org/Graphics/SVG/1.1/DTD/svg11.dtd">
<svg version="1.1" id="Layer_1" xmlns="http://www.w3.org/2000/svg" xmlns:xlink="http://www.w3.org/1999/xlink" x="0px" y="0px"
	 width="148.982px" height="175.11px" viewBox="0 0 148.982 175.11" enable-background="new 0 0 148.982 175.11"
	 xml:space="preserve">
<g>
	<polygon fill="#EF508A" points="5.375,52 49.5,79.125 44.25,87.75 0,60.75 	"/>
	<polygon fill="#EF508A" points="99.607,77.076 104.607,85.826 148.982,58.701 143.857,50.076 	"/>
	<rect x="82.875" y="106.485" fill="#EF508A" width="12.875" height="68.625"/>
	<polyline fill="#EF508A" points="53.875,106.485 53.875,175.11 66.875,175.11 66.875,106.485 	"/>
	<circle fill-rule="evenodd" clip-rule="evenodd" fill="#EF508A" cx="74.875" cy="40" r="40"/>
	<circle fill-rule="evenodd" clip-rule="evenodd" fill="#FFFFFF" cx="74.875" cy="40" r="29.875"/>
	<rect x="65.952" y="67.951" fill-rule="evenodd" clip-rule="evenodd" fill="#FFFFFF" width="17.846" height="15.299"/>
	<polyline fill="#6DCBD4" points="70.437,111.53 79.312,111.53 79.312,97.78 94.5,97.78 94.5,88.03 79.25,88.03 79.125,73.717 
		70.437,73.717 70.437,87.842 55.25,87.842 55.25,97.78 70.437,97.78 	"/>
</g>
</svg>
